# xmcd
#
# Track frame offsets:
# 182
# 21257
# 34057
# 53795
# 67482
# 86432
# 103557
# 123057
# 144332
# 156732
# 170482
# 189132
#
# Disc length: 2851 seconds
#
#
# Revision: 0
# Processed by: cddbd v1.5.2PL0 Copyright (c) Steve Scherf et al.
# Submitted via: Nero 7, 11, 10, 0 
#
DISCID=a00b210c
DTITLE=The De Luxe Blues Band - A Street-Car Named De Luxe
DYEAR=1981
DGENRE=Blues
TTITLE0=Crazy 'Bout Oklahoma
TTITLE1=Maybelline
TTITLE2=Too Tired
TTITLE3=After Hours
TTITLE4=Boogie Chillun - Feel So Good
TTITLE5=Bad Case Of Love
TTITLE6=It Hurts Me Too
TTITLE7=The Jungle
TTITLE8=Well Well
TTITLE9=Rocking On The Railroad
TTITLE10=Lovin' Machine
TTITLE11=Hey! Bo Diddley
EXTD=
EXTT0=Crazy 'Bout Oklahoma
EXTT1=Maybelline
EXTT2=Too Tired
EXTT3=After Hours
EXTT4=Boogie Chillun - Feel So Good
EXTT5=Bad Case Of Love
EXTT6=It Hurts Me Too
EXTT7=The Jungle
EXTT8=Well Well
EXTT9=Rocking On The Railroad
EXTT10=Lovin' Machine
EXTT11=Hey! Bo Diddley
PLAYORDER=
